<?xml version="1.0" encoding="UTF-8"?>
<svg xmlns="http://www.w3.org/2000/svg" viewBox="0 0 50 50" width="50px" height="50px">
<g id="surface18296745">
<path style=" stroke:none;fill-rule:nonzero;fill:rgb(27.450982%,38.039216%,89.019608%);fill-opacity:1;" d="M 45.53125 3.089844 L 43.269531 28.457031 C 42.230469 28.160156 41.132812 28 40 28 C 38.484375 28 37.035156 28.285156 35.699219 28.800781 L 36.394531 21.007812 L 18.484375 21.007812 L 18.035156 15.917969 L 36.847656 15.917969 L 37.28125 11.054688 L 12.722656 11.054688 L 14.046875 25.859375 L 31.089844 25.859375 L 30.507812 32.296875 L 25.050781 33.460938 L 19.492188 32.296875 L 19.28125 29.917969 L 14.410156 29.917969 L 14.953125 36.046875 L 24.894531 39.058594 L 24.992188 39.089844 L 28.144531 38.136719 C 28.050781 38.746094 28 39.367188 28 40 C 28 42.4375 28.738281 44.710938 30 46.613281 L 25.269531 47.960938 C 25.179688 47.988281 25.089844 48 24.996094 48 C 24.902344 48 24.808594 47.988281 24.722656 47.960938 L 8.710938 43.390625 C 8.3125 43.273438 8.023438 42.929688 7.988281 42.515625 L 4.46875 3.089844 C 4.441406 2.808594 4.535156 2.53125 4.726562 2.324219 C 4.914062 2.117188 5.183594 2 5.464844 2 L 44.535156 2 C 44.816406 2 45.085938 2.117188 45.273438 2.324219 C 45.464844 2.53125 45.558594 2.808594 45.53125 3.089844 Z M 45.53125 3.089844 "/>
<path style=" stroke:none;fill-rule:nonzero;fill:rgb(80.000001%,80.000001%,80.000001%);fill-opacity:1;" d="M 45.898438 40 C 45.898438 40.601562 45.5 41 44.898438 41 L 41 41 L 41 44.898438 C 41 45.5 40.601562 45.898438 40 45.898438 C 39.398438 45.898438 39 45.5 39 44.898438 L 39 41 L 35.101562 41 C 34.5 41 34.101562 40.601562 34.101562 40 C 34.101562 39.398438 34.5 39 35.101562 39 L 39 39 L 39 35.101562 C 39 34.5 39.398438 34.101562 40 34.101562 C 40.601562 34.101562 41 34.5 41 35.101562 L 41 39 L 44.898438 39 C 45.5 39 45.898438 39.398438 45.898438 40 Z M 50 40 C 50 45.5 45.5 50 40 50 C 34.5 50 30 45.5 30 40 C 30 34.5 34.5 30 40 30 C 45.5 30 50 34.5 50 40 Z M 48 40 C 48 35.601562 44.398438 32 40 32 C 35.601562 32 32 35.601562 32 40 C 32 44.398438 35.601562 48 40 48 C 44.398438 48 48 44.398438 48 40 Z M 48 40 "/>
</g>
</svg>
