<?xml version="1.0" encoding="UTF-8"?>
<svg xmlns="http://www.w3.org/2000/svg" viewBox="0 0 50 50" width="50px" height="50px">
<g id="surface18294095">
<path style=" stroke:none;fill-rule:nonzero;fill:rgb(100%,100%,100%);fill-opacity:1;" d="M 25 4.21875 C 13.523438 4.21875 4.21875 13.523438 4.21875 25 C 4.21875 36.476562 13.523438 45.78125 25 45.78125 C 36.476562 45.78125 45.78125 36.476562 45.78125 25 C 45.78125 13.523438 36.476562 4.21875 25 4.21875 Z M 25 4.21875 "/>
<path style=" stroke:none;fill-rule:nonzero;fill:rgb(27.450982%,38.039216%,89.019608%);fill-opacity:1;" d="M 8.335938 25 C 8.335938 31.601562 12.167969 37.296875 17.726562 40 L 9.777344 18.214844 C 8.851562 20.289062 8.335938 22.578125 8.335938 25 Z M 36.253906 24.160156 C 36.253906 22.101562 35.148438 20.671875 34.515625 19.566406 C 33.667969 18.179688 32.871094 17.027344 32.871094 15.65625 C 32.871094 14.128906 34.40625 12.699219 36.039062 12.699219 C 36.113281 12.699219 36.179688 12.703125 36.253906 12.707031 C 33.292969 9.984375 29.339844 8.332031 25 8.332031 C 19.386719 8.332031 14.425781 11.109375 11.40625 15.363281 C 11.644531 15.441406 11.726562 15.402344 12.042969 15.402344 C 13.78125 15.402344 16.484375 15.195312 16.484375 15.195312 C 17.378906 15.136719 17.488281 16.457031 16.585938 16.566406 C 16.585938 16.566406 15.6875 16.675781 14.683594 16.726562 L 20.859375 35.242188 L 24.507812 24.304688 L 21.792969 16.753906 C 20.898438 16.707031 20.046875 16.597656 20.046875 16.597656 C 19.148438 16.539062 19.253906 15.164062 20.148438 15.226562 C 20.148438 15.226562 22.90625 15.433594 24.539062 15.433594 C 26.285156 15.433594 28.980469 15.226562 28.980469 15.226562 C 29.878906 15.167969 29.988281 16.488281 29.089844 16.597656 C 29.089844 16.597656 28.183594 16.707031 27.183594 16.753906 L 33.320312 35.097656 L 34.984375 29.550781 C 35.832031 27.382812 36.253906 25.59375 36.253906 24.160156 Z M 25.292969 26.453125 L 20.292969 40.988281 C 21.789062 41.429688 23.367188 41.667969 25 41.667969 C 26.941406 41.667969 28.800781 41.328125 30.539062 40.722656 C 30.496094 40.648438 30.449219 40.574219 30.414062 40.492188 Z M 39.628906 16.996094 C 39.703125 17.527344 39.742188 18.101562 39.742188 18.710938 C 39.742188 20.40625 39.421875 22.304688 38.472656 24.6875 L 33.382812 39.410156 C 38.339844 36.523438 41.667969 31.148438 41.667969 25 C 41.667969 22.101562 40.925781 19.378906 39.628906 16.996094 Z M 39.628906 16.996094 "/>
<path style=" stroke:none;fill-rule:nonzero;fill:rgb(27.450982%,38.039216%,89.019608%);fill-opacity:1;" d="M 4.167969 25 C 4.167969 36.484375 13.511719 45.832031 25 45.832031 C 36.488281 45.832031 45.832031 36.484375 45.832031 25 C 45.832031 13.515625 36.488281 4.167969 25 4.167969 C 13.511719 4.167969 4.167969 13.515625 4.167969 25 Z M 6.246094 25 C 6.246094 14.664062 14.65625 6.25 25 6.25 C 35.34375 6.25 43.753906 14.664062 43.753906 25 C 43.753906 35.335938 35.34375 43.75 25 43.75 C 14.660156 43.75 6.246094 35.335938 6.246094 25 Z M 6.246094 25 "/>
</g>
</svg>
